<mxfile host="app.diagrams.net" modified="2021-12-05T13:29:12.746Z" agent="5.0 (X11)" etag="YQ1yVowmzm99hKaKMWvo" version="15.9.1" type="github">
  <diagram id="TtxQt77F0Pve0Gq8ISPb" name="L1 I-cache">
    <mxGraphModel dx="1864" dy="2111" grid="1" gridSize="10" guides="1" tooltips="1" connect="1" arrows="1" fold="1" page="1" pageScale="1" pageWidth="850" pageHeight="1100" math="0" shadow="0">
      <root>
        <mxCell id="0" />
        <mxCell id="1" parent="0" />
        <mxCell id="AAuzFfe44RQ2FQWe9RqB-12" style="edgeStyle=orthogonalEdgeStyle;rounded=0;orthogonalLoop=1;jettySize=auto;html=1;exitX=0.5;exitY=0;exitDx=0;exitDy=0;entryX=1;entryY=0.75;entryDx=0;entryDy=0;fillColor=#1ba1e2;strokeColor=#006EAF;" parent="1" source="AAuzFfe44RQ2FQWe9RqB-3" target="AAuzFfe44RQ2FQWe9RqB-10" edge="1">
          <mxGeometry relative="1" as="geometry">
            <Array as="points">
              <mxPoint x="300" y="610" />
              <mxPoint x="190" y="610" />
              <mxPoint x="190" y="484" />
            </Array>
          </mxGeometry>
        </mxCell>
        <mxCell id="AAuzFfe44RQ2FQWe9RqB-3" value="Tag" style="rounded=0;whiteSpace=wrap;html=1;fillColor=#dae8fc;strokeColor=#6c8ebf;" parent="1" vertex="1">
          <mxGeometry x="220" y="698" width="160" height="30" as="geometry" />
        </mxCell>
        <mxCell id="AAuzFfe44RQ2FQWe9RqB-50" style="edgeStyle=orthogonalEdgeStyle;rounded=0;orthogonalLoop=1;jettySize=auto;html=1;exitX=0.5;exitY=0;exitDx=0;exitDy=0;entryX=1;entryY=0.5;entryDx=0;entryDy=0;startArrow=none;startFill=0;endArrow=classic;endFill=1;fillColor=#1ba1e2;strokeColor=#006EAF;" parent="1" source="AAuzFfe44RQ2FQWe9RqB-4" target="AAuzFfe44RQ2FQWe9RqB-35" edge="1">
          <mxGeometry relative="1" as="geometry">
            <Array as="points">
              <mxPoint x="460" y="620" />
              <mxPoint x="1110" y="620" />
            </Array>
          </mxGeometry>
        </mxCell>
        <mxCell id="_ZMJS2XEXF6SMcS7L7t3-20" style="edgeStyle=orthogonalEdgeStyle;rounded=0;orthogonalLoop=1;jettySize=auto;html=1;startArrow=classic;startFill=1;endArrow=none;endFill=0;strokeWidth=1;fillColor=#1ba1e2;strokeColor=#006EAF;entryX=0;entryY=0.5;entryDx=0;entryDy=0;exitX=0.5;exitY=1;exitDx=0;exitDy=0;" edge="1" parent="1" source="AAuzFfe44RQ2FQWe9RqB-4" target="_ZMJS2XEXF6SMcS7L7t3-21">
          <mxGeometry relative="1" as="geometry">
            <mxPoint x="1684" y="764" as="targetPoint" />
            <mxPoint x="464" y="740" as="sourcePoint" />
            <Array as="points">
              <mxPoint x="460" y="764" />
            </Array>
          </mxGeometry>
        </mxCell>
        <mxCell id="AAuzFfe44RQ2FQWe9RqB-4" value="Cache line index" style="rounded=0;whiteSpace=wrap;html=1;fillColor=#dae8fc;strokeColor=#6c8ebf;" parent="1" vertex="1">
          <mxGeometry x="380" y="698" width="160" height="30" as="geometry" />
        </mxCell>
        <mxCell id="AAuzFfe44RQ2FQWe9RqB-86" style="edgeStyle=orthogonalEdgeStyle;rounded=0;orthogonalLoop=1;jettySize=auto;html=1;exitX=0.5;exitY=0;exitDx=0;exitDy=0;entryX=1;entryY=0.5;entryDx=0;entryDy=0;startArrow=none;startFill=0;endArrow=classic;endFill=1;fillColor=#1ba1e2;strokeColor=#006EAF;" parent="1" source="AAuzFfe44RQ2FQWe9RqB-5" target="AAuzFfe44RQ2FQWe9RqB-71" edge="1">
          <mxGeometry relative="1" as="geometry">
            <Array as="points">
              <mxPoint x="620" y="650" />
              <mxPoint x="1220" y="650" />
              <mxPoint x="1220" y="372" />
            </Array>
          </mxGeometry>
        </mxCell>
        <mxCell id="AAuzFfe44RQ2FQWe9RqB-5" value="Cache line offset" style="rounded=0;whiteSpace=wrap;html=1;fillColor=#dae8fc;strokeColor=#6c8ebf;" parent="1" vertex="1">
          <mxGeometry x="540" y="698" width="160" height="30" as="geometry" />
        </mxCell>
        <mxCell id="AAuzFfe44RQ2FQWe9RqB-14" style="edgeStyle=orthogonalEdgeStyle;rounded=0;orthogonalLoop=1;jettySize=auto;html=1;exitX=0.5;exitY=1;exitDx=0;exitDy=0;entryX=0;entryY=0.75;entryDx=0;entryDy=0;entryPerimeter=0;" parent="1" source="AAuzFfe44RQ2FQWe9RqB-6" target="AAuzFfe44RQ2FQWe9RqB-13" edge="1">
          <mxGeometry relative="1" as="geometry" />
        </mxCell>
        <mxCell id="AAuzFfe44RQ2FQWe9RqB-6" value="Valid(n)" style="rounded=0;whiteSpace=wrap;html=1;" parent="1" vertex="1">
          <mxGeometry x="243" y="379" width="50" height="30" as="geometry" />
        </mxCell>
        <mxCell id="AAuzFfe44RQ2FQWe9RqB-11" style="edgeStyle=orthogonalEdgeStyle;rounded=0;orthogonalLoop=1;jettySize=auto;html=1;exitX=0.5;exitY=1;exitDx=0;exitDy=0;entryX=1;entryY=0.25;entryDx=0;entryDy=0;" parent="1" source="AAuzFfe44RQ2FQWe9RqB-7" target="AAuzFfe44RQ2FQWe9RqB-10" edge="1">
          <mxGeometry relative="1" as="geometry" />
        </mxCell>
        <mxCell id="AAuzFfe44RQ2FQWe9RqB-7" value="&lt;div&gt;Cache Tag(n)&lt;/div&gt;" style="rounded=0;whiteSpace=wrap;html=1;" parent="1" vertex="1">
          <mxGeometry x="323" y="379" width="160" height="30" as="geometry" />
        </mxCell>
        <mxCell id="AAuzFfe44RQ2FQWe9RqB-39" style="edgeStyle=orthogonalEdgeStyle;rounded=0;orthogonalLoop=1;jettySize=auto;html=1;exitX=1;exitY=0.5;exitDx=0;exitDy=0;entryX=0.061;entryY=1;entryDx=0;entryDy=0;entryPerimeter=0;startArrow=none;startFill=0;endArrow=classic;endFill=1;" parent="1" source="AAuzFfe44RQ2FQWe9RqB-8" target="AAuzFfe44RQ2FQWe9RqB-35" edge="1">
          <mxGeometry relative="1" as="geometry">
            <Array as="points">
              <mxPoint x="1020" y="394" />
              <mxPoint x="1020" />
            </Array>
          </mxGeometry>
        </mxCell>
        <mxCell id="AAuzFfe44RQ2FQWe9RqB-8" value="Cache line(n)" style="rounded=0;whiteSpace=wrap;html=1;" parent="1" vertex="1">
          <mxGeometry x="533" y="379" width="160" height="30" as="geometry" />
        </mxCell>
        <mxCell id="AAuzFfe44RQ2FQWe9RqB-15" style="edgeStyle=orthogonalEdgeStyle;rounded=0;orthogonalLoop=1;jettySize=auto;html=1;exitX=0;exitY=0.5;exitDx=0;exitDy=0;entryX=0;entryY=0.25;entryDx=0;entryDy=0;entryPerimeter=0;" parent="1" source="AAuzFfe44RQ2FQWe9RqB-10" target="AAuzFfe44RQ2FQWe9RqB-13" edge="1">
          <mxGeometry relative="1" as="geometry" />
        </mxCell>
        <mxCell id="AAuzFfe44RQ2FQWe9RqB-10" value="Compare" style="rounded=0;whiteSpace=wrap;html=1;" parent="1" vertex="1">
          <mxGeometry x="80" y="439" width="70" height="60" as="geometry" />
        </mxCell>
        <mxCell id="_ZMJS2XEXF6SMcS7L7t3-2" style="edgeStyle=orthogonalEdgeStyle;rounded=0;orthogonalLoop=1;jettySize=auto;html=1;exitX=1;exitY=0.5;exitDx=0;exitDy=0;exitPerimeter=0;entryX=0.022;entryY=0.048;entryDx=0;entryDy=0;entryPerimeter=0;" edge="1" parent="1" source="AAuzFfe44RQ2FQWe9RqB-13" target="AAuzFfe44RQ2FQWe9RqB-90">
          <mxGeometry relative="1" as="geometry" />
        </mxCell>
        <mxCell id="AAuzFfe44RQ2FQWe9RqB-13" value="" style="shape=or;whiteSpace=wrap;html=1;direction=west;" parent="1" vertex="1">
          <mxGeometry x="-40" y="409" width="60" height="80" as="geometry" />
        </mxCell>
        <mxCell id="AAuzFfe44RQ2FQWe9RqB-16" style="edgeStyle=orthogonalEdgeStyle;rounded=0;orthogonalLoop=1;jettySize=auto;html=1;exitX=0.5;exitY=1;exitDx=0;exitDy=0;entryX=0;entryY=0.75;entryDx=0;entryDy=0;entryPerimeter=0;" parent="1" source="AAuzFfe44RQ2FQWe9RqB-17" target="AAuzFfe44RQ2FQWe9RqB-23" edge="1">
          <mxGeometry relative="1" as="geometry" />
        </mxCell>
        <mxCell id="AAuzFfe44RQ2FQWe9RqB-17" value="Valid(1)" style="rounded=0;whiteSpace=wrap;html=1;" parent="1" vertex="1">
          <mxGeometry x="243" y="150" width="50" height="30" as="geometry" />
        </mxCell>
        <mxCell id="AAuzFfe44RQ2FQWe9RqB-18" style="edgeStyle=orthogonalEdgeStyle;rounded=0;orthogonalLoop=1;jettySize=auto;html=1;exitX=0.5;exitY=1;exitDx=0;exitDy=0;entryX=1;entryY=0.25;entryDx=0;entryDy=0;" parent="1" source="AAuzFfe44RQ2FQWe9RqB-19" target="AAuzFfe44RQ2FQWe9RqB-22" edge="1">
          <mxGeometry relative="1" as="geometry" />
        </mxCell>
        <mxCell id="AAuzFfe44RQ2FQWe9RqB-19" value="&lt;div&gt;Cache Tag(1)&lt;/div&gt;" style="rounded=0;whiteSpace=wrap;html=1;" parent="1" vertex="1">
          <mxGeometry x="323" y="150" width="160" height="30" as="geometry" />
        </mxCell>
        <mxCell id="AAuzFfe44RQ2FQWe9RqB-38" style="edgeStyle=orthogonalEdgeStyle;rounded=0;orthogonalLoop=1;jettySize=auto;html=1;exitX=1;exitY=0.5;exitDx=0;exitDy=0;entryX=0.839;entryY=1;entryDx=0;entryDy=0;entryPerimeter=0;startArrow=none;startFill=0;endArrow=classic;endFill=1;" parent="1" source="AAuzFfe44RQ2FQWe9RqB-20" target="AAuzFfe44RQ2FQWe9RqB-35" edge="1">
          <mxGeometry relative="1" as="geometry">
            <Array as="points">
              <mxPoint x="940" y="165" />
              <mxPoint x="940" y="-140" />
            </Array>
          </mxGeometry>
        </mxCell>
        <mxCell id="AAuzFfe44RQ2FQWe9RqB-20" value="Cache line(1)" style="rounded=0;whiteSpace=wrap;html=1;" parent="1" vertex="1">
          <mxGeometry x="533" y="150" width="160" height="30" as="geometry" />
        </mxCell>
        <mxCell id="AAuzFfe44RQ2FQWe9RqB-21" style="edgeStyle=orthogonalEdgeStyle;rounded=0;orthogonalLoop=1;jettySize=auto;html=1;exitX=0;exitY=0.5;exitDx=0;exitDy=0;entryX=0;entryY=0.25;entryDx=0;entryDy=0;entryPerimeter=0;" parent="1" source="AAuzFfe44RQ2FQWe9RqB-22" target="AAuzFfe44RQ2FQWe9RqB-23" edge="1">
          <mxGeometry relative="1" as="geometry" />
        </mxCell>
        <mxCell id="AAuzFfe44RQ2FQWe9RqB-34" style="edgeStyle=orthogonalEdgeStyle;rounded=0;orthogonalLoop=1;jettySize=auto;html=1;exitX=1;exitY=0.75;exitDx=0;exitDy=0;startArrow=classic;startFill=1;endArrow=oval;endFill=1;fillColor=#1ba1e2;strokeColor=#006EAF;" parent="1" source="AAuzFfe44RQ2FQWe9RqB-22" edge="1">
          <mxGeometry relative="1" as="geometry">
            <mxPoint x="190" y="255.22222222222217" as="targetPoint" />
          </mxGeometry>
        </mxCell>
        <mxCell id="AAuzFfe44RQ2FQWe9RqB-22" value="Compare" style="rounded=0;whiteSpace=wrap;html=1;" parent="1" vertex="1">
          <mxGeometry x="80" y="210" width="70" height="60" as="geometry" />
        </mxCell>
        <mxCell id="_ZMJS2XEXF6SMcS7L7t3-3" style="edgeStyle=orthogonalEdgeStyle;rounded=0;orthogonalLoop=1;jettySize=auto;html=1;exitX=1;exitY=0.5;exitDx=0;exitDy=0;exitPerimeter=0;entryX=0.1;entryY=0.882;entryDx=0;entryDy=0;entryPerimeter=0;" edge="1" parent="1" source="AAuzFfe44RQ2FQWe9RqB-23" target="AAuzFfe44RQ2FQWe9RqB-90">
          <mxGeometry relative="1" as="geometry" />
        </mxCell>
        <mxCell id="AAuzFfe44RQ2FQWe9RqB-23" value="" style="shape=or;whiteSpace=wrap;html=1;direction=west;" parent="1" vertex="1">
          <mxGeometry x="-40" y="180" width="60" height="80" as="geometry" />
        </mxCell>
        <mxCell id="AAuzFfe44RQ2FQWe9RqB-25" style="edgeStyle=orthogonalEdgeStyle;rounded=0;orthogonalLoop=1;jettySize=auto;html=1;exitX=0.5;exitY=1;exitDx=0;exitDy=0;entryX=0;entryY=0.75;entryDx=0;entryDy=0;entryPerimeter=0;" parent="1" source="AAuzFfe44RQ2FQWe9RqB-26" target="AAuzFfe44RQ2FQWe9RqB-33" edge="1">
          <mxGeometry relative="1" as="geometry" />
        </mxCell>
        <mxCell id="AAuzFfe44RQ2FQWe9RqB-26" value="Valid(0)" style="rounded=0;whiteSpace=wrap;html=1;" parent="1" vertex="1">
          <mxGeometry x="243" y="-109" width="50" height="30" as="geometry" />
        </mxCell>
        <mxCell id="AAuzFfe44RQ2FQWe9RqB-27" style="edgeStyle=orthogonalEdgeStyle;rounded=0;orthogonalLoop=1;jettySize=auto;html=1;exitX=0.5;exitY=1;exitDx=0;exitDy=0;entryX=1;entryY=0.25;entryDx=0;entryDy=0;" parent="1" source="AAuzFfe44RQ2FQWe9RqB-28" target="AAuzFfe44RQ2FQWe9RqB-32" edge="1">
          <mxGeometry relative="1" as="geometry" />
        </mxCell>
        <mxCell id="AAuzFfe44RQ2FQWe9RqB-28" value="&lt;div&gt;Cache Tag(0)&lt;/div&gt;" style="rounded=0;whiteSpace=wrap;html=1;" parent="1" vertex="1">
          <mxGeometry x="323" y="-109" width="160" height="30" as="geometry" />
        </mxCell>
        <mxCell id="AAuzFfe44RQ2FQWe9RqB-37" style="edgeStyle=orthogonalEdgeStyle;rounded=0;orthogonalLoop=1;jettySize=auto;html=1;exitX=1;exitY=0.5;exitDx=0;exitDy=0;entryX=0.913;entryY=1.033;entryDx=0;entryDy=0;entryPerimeter=0;startArrow=none;startFill=0;endArrow=classic;endFill=1;" parent="1" source="AAuzFfe44RQ2FQWe9RqB-29" target="AAuzFfe44RQ2FQWe9RqB-35" edge="1">
          <mxGeometry relative="1" as="geometry">
            <Array as="points">
              <mxPoint x="910" y="-94" />
              <mxPoint x="910" y="-153" />
            </Array>
          </mxGeometry>
        </mxCell>
        <mxCell id="AAuzFfe44RQ2FQWe9RqB-29" value="Cache line(0)" style="rounded=0;whiteSpace=wrap;html=1;" parent="1" vertex="1">
          <mxGeometry x="533" y="-109" width="160" height="30" as="geometry" />
        </mxCell>
        <mxCell id="AAuzFfe44RQ2FQWe9RqB-30" style="edgeStyle=orthogonalEdgeStyle;rounded=0;orthogonalLoop=1;jettySize=auto;html=1;exitX=0;exitY=0.5;exitDx=0;exitDy=0;entryX=0;entryY=0.25;entryDx=0;entryDy=0;entryPerimeter=0;" parent="1" source="AAuzFfe44RQ2FQWe9RqB-32" target="AAuzFfe44RQ2FQWe9RqB-33" edge="1">
          <mxGeometry relative="1" as="geometry" />
        </mxCell>
        <mxCell id="AAuzFfe44RQ2FQWe9RqB-31" style="edgeStyle=orthogonalEdgeStyle;rounded=0;orthogonalLoop=1;jettySize=auto;html=1;exitX=1;exitY=0.75;exitDx=0;exitDy=0;startArrow=classic;startFill=1;endArrow=oval;endFill=1;fillColor=#1ba1e2;strokeColor=#006EAF;" parent="1" source="AAuzFfe44RQ2FQWe9RqB-32" edge="1">
          <mxGeometry relative="1" as="geometry">
            <mxPoint x="190" y="484" as="targetPoint" />
          </mxGeometry>
        </mxCell>
        <mxCell id="AAuzFfe44RQ2FQWe9RqB-32" value="Compare" style="rounded=0;whiteSpace=wrap;html=1;" parent="1" vertex="1">
          <mxGeometry x="80" y="-49" width="70" height="60" as="geometry" />
        </mxCell>
        <mxCell id="_ZMJS2XEXF6SMcS7L7t3-1" style="edgeStyle=orthogonalEdgeStyle;rounded=0;orthogonalLoop=1;jettySize=auto;html=1;exitX=1;exitY=0.5;exitDx=0;exitDy=0;exitPerimeter=0;entryX=0.044;entryY=0.948;entryDx=0;entryDy=0;entryPerimeter=0;" edge="1" parent="1" source="AAuzFfe44RQ2FQWe9RqB-33" target="AAuzFfe44RQ2FQWe9RqB-90">
          <mxGeometry relative="1" as="geometry" />
        </mxCell>
        <mxCell id="AAuzFfe44RQ2FQWe9RqB-33" value="" style="shape=or;whiteSpace=wrap;html=1;direction=west;" parent="1" vertex="1">
          <mxGeometry x="-40" y="-79" width="60" height="80" as="geometry" />
        </mxCell>
        <mxCell id="AAuzFfe44RQ2FQWe9RqB-70" style="edgeStyle=orthogonalEdgeStyle;rounded=0;orthogonalLoop=1;jettySize=auto;html=1;exitX=0.5;exitY=0;exitDx=0;exitDy=0;entryX=0.494;entryY=0.025;entryDx=0;entryDy=0;entryPerimeter=0;startArrow=none;startFill=0;endArrow=classic;endFill=1;" parent="1" source="AAuzFfe44RQ2FQWe9RqB-35" target="AAuzFfe44RQ2FQWe9RqB-54" edge="1">
          <mxGeometry relative="1" as="geometry" />
        </mxCell>
        <mxCell id="AAuzFfe44RQ2FQWe9RqB-35" value="" style="verticalLabelPosition=middle;verticalAlign=middle;html=1;shape=trapezoid;perimeter=trapezoidPerimeter;whiteSpace=wrap;size=0.125;arcSize=10;flipV=1;labelPosition=center;align=center;direction=south;" parent="1" vertex="1">
          <mxGeometry x="1090" y="-169" width="40" height="180" as="geometry" />
        </mxCell>
        <mxCell id="AAuzFfe44RQ2FQWe9RqB-40" value="" style="endArrow=classic;dashed=1;html=1;rounded=0;entryX=0.25;entryY=1;entryDx=0;entryDy=0;endFill=1;" parent="1" edge="1">
          <mxGeometry width="50" height="50" relative="1" as="geometry">
            <mxPoint x="1050" y="-126" as="sourcePoint" />
            <mxPoint x="1090" y="-126.00000000000023" as="targetPoint" />
          </mxGeometry>
        </mxCell>
        <mxCell id="AAuzFfe44RQ2FQWe9RqB-41" value="" style="endArrow=classic;dashed=1;html=1;rounded=0;entryX=0.25;entryY=1;entryDx=0;entryDy=0;endFill=1;" parent="1" edge="1">
          <mxGeometry width="50" height="50" relative="1" as="geometry">
            <mxPoint x="1050" y="-112" as="sourcePoint" />
            <mxPoint x="1090" y="-111.77000000000022" as="targetPoint" />
          </mxGeometry>
        </mxCell>
        <mxCell id="AAuzFfe44RQ2FQWe9RqB-42" value="" style="endArrow=classic;dashed=1;html=1;rounded=0;entryX=0.25;entryY=1;entryDx=0;entryDy=0;endFill=1;" parent="1" edge="1">
          <mxGeometry width="50" height="50" relative="1" as="geometry">
            <mxPoint x="1050" y="-97" as="sourcePoint" />
            <mxPoint x="1090" y="-97.38000000000022" as="targetPoint" />
          </mxGeometry>
        </mxCell>
        <mxCell id="AAuzFfe44RQ2FQWe9RqB-43" value="" style="endArrow=classic;dashed=1;html=1;rounded=0;entryX=0.25;entryY=1;entryDx=0;entryDy=0;endFill=1;" parent="1" edge="1">
          <mxGeometry width="50" height="50" relative="1" as="geometry">
            <mxPoint x="1050" y="-83" as="sourcePoint" />
            <mxPoint x="1090" y="-82.77000000000022" as="targetPoint" />
          </mxGeometry>
        </mxCell>
        <mxCell id="AAuzFfe44RQ2FQWe9RqB-44" value="" style="endArrow=classic;dashed=1;html=1;rounded=0;entryX=0.25;entryY=1;entryDx=0;entryDy=0;endFill=1;" parent="1" edge="1">
          <mxGeometry width="50" height="50" relative="1" as="geometry">
            <mxPoint x="1050" y="-68" as="sourcePoint" />
            <mxPoint x="1090" y="-68.00000000000023" as="targetPoint" />
          </mxGeometry>
        </mxCell>
        <mxCell id="AAuzFfe44RQ2FQWe9RqB-45" value="" style="endArrow=classic;dashed=1;html=1;rounded=0;entryX=0.25;entryY=1;entryDx=0;entryDy=0;endFill=1;" parent="1" edge="1">
          <mxGeometry width="50" height="50" relative="1" as="geometry">
            <mxPoint x="1050" y="-53" as="sourcePoint" />
            <mxPoint x="1090" y="-53.00000000000023" as="targetPoint" />
          </mxGeometry>
        </mxCell>
        <mxCell id="AAuzFfe44RQ2FQWe9RqB-46" value="" style="endArrow=classic;dashed=1;html=1;rounded=0;entryX=0.25;entryY=1;entryDx=0;entryDy=0;endFill=1;" parent="1" edge="1">
          <mxGeometry width="50" height="50" relative="1" as="geometry">
            <mxPoint x="1050" y="-39" as="sourcePoint" />
            <mxPoint x="1090" y="-39.38000000000022" as="targetPoint" />
          </mxGeometry>
        </mxCell>
        <mxCell id="AAuzFfe44RQ2FQWe9RqB-47" value="" style="endArrow=classic;dashed=1;html=1;rounded=0;entryX=0.25;entryY=1;entryDx=0;entryDy=0;endFill=1;" parent="1" edge="1">
          <mxGeometry width="50" height="50" relative="1" as="geometry">
            <mxPoint x="1050" y="-25" as="sourcePoint" />
            <mxPoint x="1090" y="-25.000000000000227" as="targetPoint" />
          </mxGeometry>
        </mxCell>
        <mxCell id="AAuzFfe44RQ2FQWe9RqB-48" value="" style="endArrow=classic;dashed=1;html=1;rounded=0;entryX=0.25;entryY=1;entryDx=0;entryDy=0;endFill=1;" parent="1" edge="1">
          <mxGeometry width="50" height="50" relative="1" as="geometry">
            <mxPoint x="1050" y="-11" as="sourcePoint" />
            <mxPoint x="1090" y="-11.000000000000227" as="targetPoint" />
          </mxGeometry>
        </mxCell>
        <mxCell id="AAuzFfe44RQ2FQWe9RqB-49" value="From other cache entries" style="text;html=1;align=center;verticalAlign=middle;whiteSpace=wrap;rounded=0;fontStyle=2;" parent="1" vertex="1">
          <mxGeometry x="958" y="-109" width="80" height="71" as="geometry" />
        </mxCell>
        <mxCell id="AAuzFfe44RQ2FQWe9RqB-53" value="" style="shape=table;html=1;whiteSpace=wrap;startSize=0;container=1;collapsible=0;childLayout=tableLayout;" parent="1" vertex="1">
          <mxGeometry x="1168" y="110" width="630" height="40" as="geometry" />
        </mxCell>
        <mxCell id="AAuzFfe44RQ2FQWe9RqB-54" value="" style="shape=partialRectangle;html=1;whiteSpace=wrap;collapsible=0;dropTarget=0;pointerEvents=0;fillColor=none;top=0;left=0;bottom=0;right=0;points=[[0,0.5],[1,0.5]];portConstraint=eastwest;" parent="AAuzFfe44RQ2FQWe9RqB-53" vertex="1">
          <mxGeometry width="630" height="40" as="geometry" />
        </mxCell>
        <mxCell id="AAuzFfe44RQ2FQWe9RqB-55" value="&lt;div&gt;word offset(m)&lt;/div&gt;" style="shape=partialRectangle;html=1;whiteSpace=wrap;connectable=0;fillColor=none;top=0;left=0;bottom=0;right=0;overflow=hidden;pointerEvents=1;" parent="AAuzFfe44RQ2FQWe9RqB-54" vertex="1">
          <mxGeometry width="120" height="40" as="geometry">
            <mxRectangle width="120" height="40" as="alternateBounds" />
          </mxGeometry>
        </mxCell>
        <mxCell id="AAuzFfe44RQ2FQWe9RqB-56" value="&lt;i&gt;other word entries in cacheline&lt;/i&gt;" style="shape=partialRectangle;html=1;whiteSpace=wrap;connectable=0;fillColor=none;top=0;left=0;bottom=0;right=0;overflow=hidden;pointerEvents=1;" parent="AAuzFfe44RQ2FQWe9RqB-54" vertex="1">
          <mxGeometry x="120" width="260" height="40" as="geometry">
            <mxRectangle width="260" height="40" as="alternateBounds" />
          </mxGeometry>
        </mxCell>
        <mxCell id="AAuzFfe44RQ2FQWe9RqB-57" value="word offset(1)" style="shape=partialRectangle;html=1;whiteSpace=wrap;connectable=0;fillColor=none;top=0;left=0;bottom=0;right=0;overflow=hidden;pointerEvents=1;" parent="AAuzFfe44RQ2FQWe9RqB-54" vertex="1">
          <mxGeometry x="380" width="120" height="40" as="geometry">
            <mxRectangle width="120" height="40" as="alternateBounds" />
          </mxGeometry>
        </mxCell>
        <mxCell id="AAuzFfe44RQ2FQWe9RqB-69" value="word offset(0)" style="shape=partialRectangle;html=1;whiteSpace=wrap;connectable=0;fillColor=none;top=0;left=0;bottom=0;right=0;overflow=hidden;pointerEvents=1;" parent="AAuzFfe44RQ2FQWe9RqB-54" vertex="1">
          <mxGeometry x="500" width="130" height="40" as="geometry">
            <mxRectangle width="130" height="40" as="alternateBounds" />
          </mxGeometry>
        </mxCell>
        <mxCell id="AAuzFfe44RQ2FQWe9RqB-87" style="edgeStyle=orthogonalEdgeStyle;rounded=0;orthogonalLoop=1;jettySize=auto;html=1;exitX=0.5;exitY=0;exitDx=0;exitDy=0;startArrow=none;startFill=0;endArrow=classic;endFill=1;entryX=0;entryY=0.5;entryDx=0;entryDy=0;" parent="1" source="AAuzFfe44RQ2FQWe9RqB-71" target="AAuzFfe44RQ2FQWe9RqB-88" edge="1">
          <mxGeometry relative="1" as="geometry">
            <mxPoint x="1648" y="600" as="targetPoint" />
            <Array as="points">
              <mxPoint x="1483" y="610" />
              <mxPoint x="1668" y="610" />
            </Array>
          </mxGeometry>
        </mxCell>
        <mxCell id="AAuzFfe44RQ2FQWe9RqB-71" value="" style="shape=trapezoid;perimeter=trapezoidPerimeter;whiteSpace=wrap;html=1;fixedSize=1;direction=west;" parent="1" vertex="1">
          <mxGeometry x="1368" y="350" width="230" height="44" as="geometry" />
        </mxCell>
        <mxCell id="AAuzFfe44RQ2FQWe9RqB-72" value="" style="endArrow=classic;html=1;rounded=0;exitX=0.902;exitY=1.025;exitDx=0;exitDy=0;exitPerimeter=0;entryX=0.076;entryY=1.012;entryDx=0;entryDy=0;entryPerimeter=0;" parent="1" source="AAuzFfe44RQ2FQWe9RqB-54" target="AAuzFfe44RQ2FQWe9RqB-71" edge="1">
          <mxGeometry width="50" height="50" relative="1" as="geometry">
            <mxPoint x="1368" y="270" as="sourcePoint" />
            <mxPoint x="1418" y="220" as="targetPoint" />
            <Array as="points">
              <mxPoint x="1736" y="310" />
              <mxPoint x="1581" y="310" />
            </Array>
          </mxGeometry>
        </mxCell>
        <mxCell id="AAuzFfe44RQ2FQWe9RqB-74" value="" style="endArrow=classic;html=1;rounded=0;exitX=0.699;exitY=0.987;exitDx=0;exitDy=0;exitPerimeter=0;" parent="1" source="AAuzFfe44RQ2FQWe9RqB-54" edge="1">
          <mxGeometry width="50" height="50" relative="1" as="geometry">
            <mxPoint x="1368" y="270" as="sourcePoint" />
            <mxPoint x="1559" y="350" as="targetPoint" />
            <Array as="points">
              <mxPoint x="1608" y="300" />
              <mxPoint x="1559" y="300" />
            </Array>
          </mxGeometry>
        </mxCell>
        <mxCell id="AAuzFfe44RQ2FQWe9RqB-75" value="" style="endArrow=classic;dashed=1;html=1;rounded=0;exitX=0.572;exitY=1.063;exitDx=0;exitDy=0;exitPerimeter=0;entryX=0.25;entryY=1;entryDx=0;entryDy=0;endFill=1;" parent="1" source="AAuzFfe44RQ2FQWe9RqB-54" target="AAuzFfe44RQ2FQWe9RqB-71" edge="1">
          <mxGeometry width="50" height="50" relative="1" as="geometry">
            <mxPoint x="1368" y="270" as="sourcePoint" />
            <mxPoint x="1418" y="220" as="targetPoint" />
            <Array as="points">
              <mxPoint x="1528" y="180" />
              <mxPoint x="1540" y="180" />
            </Array>
          </mxGeometry>
        </mxCell>
        <mxCell id="AAuzFfe44RQ2FQWe9RqB-76" value="" style="endArrow=none;dashed=1;html=1;rounded=0;entryX=0.522;entryY=0.983;entryDx=0;entryDy=0;entryPerimeter=0;endFill=0;startArrow=classic;startFill=1;" parent="1" target="AAuzFfe44RQ2FQWe9RqB-54" edge="1">
          <mxGeometry width="50" height="50" relative="1" as="geometry">
            <mxPoint x="1522" y="350" as="sourcePoint" />
            <mxPoint x="1508" y="260" as="targetPoint" />
            <Array as="points">
              <mxPoint x="1522" y="190" />
              <mxPoint x="1497" y="190" />
            </Array>
          </mxGeometry>
        </mxCell>
        <mxCell id="AAuzFfe44RQ2FQWe9RqB-77" value="" style="endArrow=none;dashed=1;html=1;rounded=0;startArrow=classic;startFill=1;" parent="1" edge="1">
          <mxGeometry width="50" height="50" relative="1" as="geometry">
            <mxPoint x="1498" y="350" as="sourcePoint" />
            <mxPoint x="1458" y="150" as="targetPoint" />
            <Array as="points">
              <mxPoint x="1498" y="200" />
              <mxPoint x="1458" y="200" />
            </Array>
          </mxGeometry>
        </mxCell>
        <mxCell id="AAuzFfe44RQ2FQWe9RqB-79" value="" style="endArrow=none;dashed=1;html=1;rounded=0;entryX=0.408;entryY=1.002;entryDx=0;entryDy=0;entryPerimeter=0;startArrow=classic;startFill=1;" parent="1" target="AAuzFfe44RQ2FQWe9RqB-54" edge="1">
          <mxGeometry width="50" height="50" relative="1" as="geometry">
            <mxPoint x="1478" y="350" as="sourcePoint" />
            <mxPoint x="1408" y="150" as="targetPoint" />
            <Array as="points">
              <mxPoint x="1478" y="220" />
              <mxPoint x="1425" y="220" />
            </Array>
          </mxGeometry>
        </mxCell>
        <mxCell id="AAuzFfe44RQ2FQWe9RqB-81" value="" style="endArrow=none;dashed=1;html=1;rounded=0;exitX=0.611;exitY=0.981;exitDx=0;exitDy=0;exitPerimeter=0;entryX=0.358;entryY=1.002;entryDx=0;entryDy=0;entryPerimeter=0;startArrow=classic;startFill=1;" parent="1" source="AAuzFfe44RQ2FQWe9RqB-71" target="AAuzFfe44RQ2FQWe9RqB-54" edge="1">
          <mxGeometry width="50" height="50" relative="1" as="geometry">
            <mxPoint x="1458" y="310" as="sourcePoint" />
            <mxPoint x="1448" y="270" as="targetPoint" />
            <Array as="points">
              <mxPoint x="1457" y="240" />
              <mxPoint x="1394" y="240" />
            </Array>
          </mxGeometry>
        </mxCell>
        <mxCell id="AAuzFfe44RQ2FQWe9RqB-82" value="" style="endArrow=none;dashed=1;html=1;rounded=0;entryX=0.308;entryY=0.983;entryDx=0;entryDy=0;entryPerimeter=0;startArrow=classic;startFill=1;" parent="1" target="AAuzFfe44RQ2FQWe9RqB-54" edge="1">
          <mxGeometry width="50" height="50" relative="1" as="geometry">
            <mxPoint x="1436" y="350" as="sourcePoint" />
            <mxPoint x="1428" y="270" as="targetPoint" />
            <Array as="points">
              <mxPoint x="1436" y="260" />
              <mxPoint x="1362" y="260" />
            </Array>
          </mxGeometry>
        </mxCell>
        <mxCell id="AAuzFfe44RQ2FQWe9RqB-83" value="" style="endArrow=none;dashed=1;html=1;rounded=0;entryX=0.264;entryY=1.02;entryDx=0;entryDy=0;entryPerimeter=0;startArrow=classic;startFill=1;" parent="1" target="AAuzFfe44RQ2FQWe9RqB-54" edge="1">
          <mxGeometry width="50" height="50" relative="1" as="geometry">
            <mxPoint x="1414" y="350" as="sourcePoint" />
            <mxPoint x="1398" y="260" as="targetPoint" />
            <Array as="points">
              <mxPoint x="1414" y="280" />
              <mxPoint x="1334" y="280" />
            </Array>
          </mxGeometry>
        </mxCell>
        <mxCell id="AAuzFfe44RQ2FQWe9RqB-84" value="" style="endArrow=none;dashed=1;html=1;rounded=0;entryX=0.212;entryY=0.983;entryDx=0;entryDy=0;entryPerimeter=0;startArrow=classic;startFill=1;" parent="1" target="AAuzFfe44RQ2FQWe9RqB-54" edge="1">
          <mxGeometry width="50" height="50" relative="1" as="geometry">
            <mxPoint x="1395" y="350" as="sourcePoint" />
            <mxPoint x="1378" y="250" as="targetPoint" />
            <Array as="points">
              <mxPoint x="1395" y="300" />
              <mxPoint x="1302" y="300" />
            </Array>
          </mxGeometry>
        </mxCell>
        <mxCell id="AAuzFfe44RQ2FQWe9RqB-85" value="" style="endArrow=classic;html=1;rounded=0;exitX=0.097;exitY=1.002;exitDx=0;exitDy=0;exitPerimeter=0;" parent="1" source="AAuzFfe44RQ2FQWe9RqB-54" edge="1">
          <mxGeometry width="50" height="50" relative="1" as="geometry">
            <mxPoint x="1458" y="310" as="sourcePoint" />
            <mxPoint x="1378" y="350" as="targetPoint" />
            <Array as="points">
              <mxPoint x="1229" y="330" />
              <mxPoint x="1378" y="330" />
            </Array>
          </mxGeometry>
        </mxCell>
        <mxCell id="AAuzFfe44RQ2FQWe9RqB-88" value="instruction" style="text;html=1;strokeColor=none;fillColor=none;align=center;verticalAlign=middle;whiteSpace=wrap;rounded=0;" parent="1" vertex="1">
          <mxGeometry x="1680" y="595" width="60" height="30" as="geometry" />
        </mxCell>
        <mxCell id="_ZMJS2XEXF6SMcS7L7t3-19" style="edgeStyle=orthogonalEdgeStyle;rounded=0;orthogonalLoop=1;jettySize=auto;html=1;exitX=1;exitY=0.5;exitDx=0;exitDy=0;exitPerimeter=0;entryX=0;entryY=0.5;entryDx=0;entryDy=0;startArrow=none;startFill=0;endArrow=classic;endFill=1;strokeWidth=1;fillColor=#1ba1e2;strokeColor=#000000;" edge="1" parent="1" source="AAuzFfe44RQ2FQWe9RqB-90" target="_ZMJS2XEXF6SMcS7L7t3-17">
          <mxGeometry relative="1" as="geometry">
            <Array as="points">
              <mxPoint x="-150" y="810" />
              <mxPoint x="1562" y="810" />
            </Array>
          </mxGeometry>
        </mxCell>
        <mxCell id="AAuzFfe44RQ2FQWe9RqB-90" value="" style="shape=xor;whiteSpace=wrap;html=1;direction=south;" parent="1" vertex="1">
          <mxGeometry x="-250" y="610" width="200" height="150" as="geometry" />
        </mxCell>
        <mxCell id="_ZMJS2XEXF6SMcS7L7t3-4" value="" style="endArrow=none;dashed=1;html=1;rounded=0;exitX=0.156;exitY=0.815;exitDx=0;exitDy=0;exitPerimeter=0;strokeWidth=1;endFill=0;startArrow=classic;startFill=1;" edge="1" parent="1" source="AAuzFfe44RQ2FQWe9RqB-90">
          <mxGeometry width="50" height="50" relative="1" as="geometry">
            <mxPoint x="-130" y="580" as="sourcePoint" />
            <mxPoint x="-213" y="580" as="targetPoint" />
          </mxGeometry>
        </mxCell>
        <mxCell id="_ZMJS2XEXF6SMcS7L7t3-6" value="" style="endArrow=none;dashed=1;html=1;rounded=0;exitX=0.156;exitY=0.815;exitDx=0;exitDy=0;exitPerimeter=0;strokeWidth=1;endFill=0;startArrow=classic;startFill=1;" edge="1" parent="1">
          <mxGeometry width="50" height="50" relative="1" as="geometry">
            <mxPoint x="-200" y="638.4000000000001" as="sourcePoint" />
            <mxPoint x="-200" y="585" as="targetPoint" />
          </mxGeometry>
        </mxCell>
        <mxCell id="_ZMJS2XEXF6SMcS7L7t3-7" value="" style="endArrow=none;dashed=1;html=1;rounded=0;exitX=0.156;exitY=0.815;exitDx=0;exitDy=0;exitPerimeter=0;strokeWidth=1;endFill=0;startArrow=classic;startFill=1;" edge="1" parent="1">
          <mxGeometry width="50" height="50" relative="1" as="geometry">
            <mxPoint x="-188" y="642.4000000000001" as="sourcePoint" />
            <mxPoint x="-188" y="589" as="targetPoint" />
          </mxGeometry>
        </mxCell>
        <mxCell id="_ZMJS2XEXF6SMcS7L7t3-8" value="" style="endArrow=none;dashed=1;html=1;rounded=0;exitX=0.156;exitY=0.815;exitDx=0;exitDy=0;exitPerimeter=0;strokeWidth=1;endFill=0;startArrow=classic;startFill=1;" edge="1" parent="1">
          <mxGeometry width="50" height="50" relative="1" as="geometry">
            <mxPoint x="-176" y="644.4000000000001" as="sourcePoint" />
            <mxPoint x="-176" y="591" as="targetPoint" />
          </mxGeometry>
        </mxCell>
        <mxCell id="_ZMJS2XEXF6SMcS7L7t3-9" value="" style="endArrow=none;dashed=1;html=1;rounded=0;exitX=0.156;exitY=0.815;exitDx=0;exitDy=0;exitPerimeter=0;strokeWidth=1;endFill=0;startArrow=classic;startFill=1;" edge="1" parent="1">
          <mxGeometry width="50" height="50" relative="1" as="geometry">
            <mxPoint x="-163" y="646.4000000000001" as="sourcePoint" />
            <mxPoint x="-163" y="593" as="targetPoint" />
          </mxGeometry>
        </mxCell>
        <mxCell id="_ZMJS2XEXF6SMcS7L7t3-10" value="" style="endArrow=none;dashed=1;html=1;rounded=0;exitX=0.156;exitY=0.815;exitDx=0;exitDy=0;exitPerimeter=0;strokeWidth=1;endFill=0;startArrow=classic;startFill=1;" edge="1" parent="1">
          <mxGeometry width="50" height="50" relative="1" as="geometry">
            <mxPoint x="-150" y="647.4000000000001" as="sourcePoint" />
            <mxPoint x="-150" y="594" as="targetPoint" />
          </mxGeometry>
        </mxCell>
        <mxCell id="_ZMJS2XEXF6SMcS7L7t3-11" value="" style="endArrow=none;dashed=1;html=1;rounded=0;exitX=0.156;exitY=0.815;exitDx=0;exitDy=0;exitPerimeter=0;strokeWidth=1;endFill=0;startArrow=classic;startFill=1;" edge="1" parent="1">
          <mxGeometry width="50" height="50" relative="1" as="geometry">
            <mxPoint x="-135" y="646.4000000000001" as="sourcePoint" />
            <mxPoint x="-135" y="593" as="targetPoint" />
          </mxGeometry>
        </mxCell>
        <mxCell id="_ZMJS2XEXF6SMcS7L7t3-12" value="" style="endArrow=none;dashed=1;html=1;rounded=0;exitX=0.156;exitY=0.815;exitDx=0;exitDy=0;exitPerimeter=0;strokeWidth=1;endFill=0;startArrow=classic;startFill=1;" edge="1" parent="1">
          <mxGeometry width="50" height="50" relative="1" as="geometry">
            <mxPoint x="-120" y="644.4000000000001" as="sourcePoint" />
            <mxPoint x="-120" y="591" as="targetPoint" />
          </mxGeometry>
        </mxCell>
        <mxCell id="_ZMJS2XEXF6SMcS7L7t3-13" value="" style="endArrow=none;dashed=1;html=1;rounded=0;exitX=0.156;exitY=0.815;exitDx=0;exitDy=0;exitPerimeter=0;strokeWidth=1;endFill=0;startArrow=classic;startFill=1;" edge="1" parent="1">
          <mxGeometry width="50" height="50" relative="1" as="geometry">
            <mxPoint x="-108" y="640.4000000000001" as="sourcePoint" />
            <mxPoint x="-108" y="587" as="targetPoint" />
          </mxGeometry>
        </mxCell>
        <mxCell id="_ZMJS2XEXF6SMcS7L7t3-14" value="" style="endArrow=none;dashed=1;html=1;rounded=0;exitX=0.156;exitY=0.815;exitDx=0;exitDy=0;exitPerimeter=0;strokeWidth=1;endFill=0;startArrow=classic;startFill=1;" edge="1" parent="1">
          <mxGeometry width="50" height="50" relative="1" as="geometry">
            <mxPoint x="-95" y="635.4000000000001" as="sourcePoint" />
            <mxPoint x="-95" y="582" as="targetPoint" />
          </mxGeometry>
        </mxCell>
        <mxCell id="_ZMJS2XEXF6SMcS7L7t3-15" value="" style="endArrow=none;dashed=1;html=1;rounded=0;exitX=0.156;exitY=0.815;exitDx=0;exitDy=0;exitPerimeter=0;strokeWidth=1;endFill=0;startArrow=classic;startFill=1;" edge="1" parent="1">
          <mxGeometry width="50" height="50" relative="1" as="geometry">
            <mxPoint x="-83" y="629.4000000000001" as="sourcePoint" />
            <mxPoint x="-83" y="576" as="targetPoint" />
          </mxGeometry>
        </mxCell>
        <mxCell id="_ZMJS2XEXF6SMcS7L7t3-16" value="" style="endArrow=none;dashed=1;html=1;rounded=0;exitX=0.156;exitY=0.815;exitDx=0;exitDy=0;exitPerimeter=0;strokeWidth=1;endFill=0;startArrow=classic;startFill=1;" edge="1" parent="1">
          <mxGeometry width="50" height="50" relative="1" as="geometry">
            <mxPoint x="-70" y="622.4000000000001" as="sourcePoint" />
            <mxPoint x="-70" y="569" as="targetPoint" />
          </mxGeometry>
        </mxCell>
        <mxCell id="_ZMJS2XEXF6SMcS7L7t3-17" value="instruction loaded" style="text;html=1;strokeColor=none;fillColor=none;align=center;verticalAlign=middle;whiteSpace=wrap;rounded=0;" vertex="1" parent="1">
          <mxGeometry x="1698" y="795" width="60" height="30" as="geometry" />
        </mxCell>
        <mxCell id="_ZMJS2XEXF6SMcS7L7t3-21" value="instruction address" style="text;html=1;strokeColor=none;fillColor=none;align=center;verticalAlign=middle;whiteSpace=wrap;rounded=0;" vertex="1" parent="1">
          <mxGeometry x="1694" y="749" width="60" height="30" as="geometry" />
        </mxCell>
        <mxCell id="_ZMJS2XEXF6SMcS7L7t3-22" value="" style="endArrow=classic;html=1;rounded=0;strokeColor=#A50040;strokeWidth=1;fillColor=#d80073;startArrow=oval;startFill=1;entryX=1;entryY=0.5;entryDx=0;entryDy=0;" edge="1" parent="1" target="_ZMJS2XEXF6SMcS7L7t3-24">
          <mxGeometry width="50" height="50" relative="1" as="geometry">
            <mxPoint x="460" y="647" as="sourcePoint" />
            <mxPoint x="160" y="567" as="targetPoint" />
            <Array as="points">
              <mxPoint x="200" y="647" />
              <mxPoint x="200" y="735" />
            </Array>
          </mxGeometry>
        </mxCell>
        <mxCell id="_ZMJS2XEXF6SMcS7L7t3-23" value="" style="endArrow=classic;html=1;rounded=0;strokeColor=#A50040;strokeWidth=1;fillColor=#d80073;startArrow=oval;startFill=1;entryX=0;entryY=0.5;entryDx=0;entryDy=0;" edge="1" parent="1" target="_ZMJS2XEXF6SMcS7L7t3-24">
          <mxGeometry width="50" height="50" relative="1" as="geometry">
            <mxPoint x="300" y="627" as="sourcePoint" />
            <mxPoint x="60" y="545" as="targetPoint" />
            <Array as="points">
              <mxPoint x="30" y="627" />
              <mxPoint x="30" y="735" />
            </Array>
          </mxGeometry>
        </mxCell>
        <mxCell id="_ZMJS2XEXF6SMcS7L7t3-25" style="edgeStyle=orthogonalEdgeStyle;rounded=0;orthogonalLoop=1;jettySize=auto;html=1;exitX=0.5;exitY=1;exitDx=0;exitDy=0;startArrow=oval;startFill=1;endArrow=classic;endFill=1;strokeColor=#ae4132;strokeWidth=1;fillColor=#fad9d5;entryX=0;entryY=0.25;entryDx=0;entryDy=0;" edge="1" parent="1" source="_ZMJS2XEXF6SMcS7L7t3-24" target="_ZMJS2XEXF6SMcS7L7t3-30">
          <mxGeometry relative="1" as="geometry">
            <mxPoint x="-410" y="-40" as="targetPoint" />
            <Array as="points">
              <mxPoint x="124" y="990" />
              <mxPoint x="-410" y="990" />
              <mxPoint x="-410" y="-407" />
            </Array>
          </mxGeometry>
        </mxCell>
        <mxCell id="_ZMJS2XEXF6SMcS7L7t3-31" value="Cache line address" style="edgeLabel;html=1;align=center;verticalAlign=middle;resizable=0;points=[];" vertex="1" connectable="0" parent="_ZMJS2XEXF6SMcS7L7t3-25">
          <mxGeometry x="0.9357" y="-4" relative="1" as="geometry">
            <mxPoint x="24" y="-16" as="offset" />
          </mxGeometry>
        </mxCell>
        <mxCell id="_ZMJS2XEXF6SMcS7L7t3-24" value="Cache line address" style="rounded=0;whiteSpace=wrap;html=1;fillColor=none;strokeColor=#990000;strokeWidth=2;" vertex="1" parent="1">
          <mxGeometry x="64" y="720" width="120" height="30" as="geometry" />
        </mxCell>
        <mxCell id="_ZMJS2XEXF6SMcS7L7t3-26" value="" style="endArrow=classic;html=1;rounded=0;strokeColor=#000000;strokeWidth=1;startArrow=oval;startFill=1;entryX=0;entryY=0.5;entryDx=0;entryDy=0;" edge="1" parent="1" target="_ZMJS2XEXF6SMcS7L7t3-27">
          <mxGeometry width="50" height="50" relative="1" as="geometry">
            <mxPoint x="-150" y="810" as="sourcePoint" />
            <mxPoint x="-340" y="460" as="targetPoint" />
            <Array as="points">
              <mxPoint x="-340" y="810" />
            </Array>
          </mxGeometry>
        </mxCell>
        <mxCell id="_ZMJS2XEXF6SMcS7L7t3-27" value="" style="triangle;whiteSpace=wrap;html=1;strokeColor=#000000;strokeWidth=2;fillColor=none;direction=north;" vertex="1" parent="1">
          <mxGeometry x="-366" y="440" width="50" height="39" as="geometry" />
        </mxCell>
        <mxCell id="_ZMJS2XEXF6SMcS7L7t3-29" style="edgeStyle=orthogonalEdgeStyle;rounded=0;orthogonalLoop=1;jettySize=auto;html=1;exitX=0.5;exitY=0;exitDx=0;exitDy=0;startArrow=none;startFill=0;endArrow=classic;endFill=1;strokeColor=#ae4132;strokeWidth=1;fillColor=#fad9d5;entryX=0;entryY=0.75;entryDx=0;entryDy=0;" edge="1" parent="1" source="_ZMJS2XEXF6SMcS7L7t3-28" target="_ZMJS2XEXF6SMcS7L7t3-30">
          <mxGeometry relative="1" as="geometry">
            <mxPoint x="-340.5" y="-40" as="targetPoint" />
          </mxGeometry>
        </mxCell>
        <mxCell id="_ZMJS2XEXF6SMcS7L7t3-32" value="Fetch cache address" style="edgeLabel;html=1;align=center;verticalAlign=middle;resizable=0;points=[];" vertex="1" connectable="0" parent="_ZMJS2XEXF6SMcS7L7t3-29">
          <mxGeometry x="0.9059" y="-2" relative="1" as="geometry">
            <mxPoint y="-19" as="offset" />
          </mxGeometry>
        </mxCell>
        <mxCell id="_ZMJS2XEXF6SMcS7L7t3-28" value="" style="ellipse;whiteSpace=wrap;html=1;aspect=fixed;strokeColor=#000000;strokeWidth=2;fillColor=none;" vertex="1" parent="1">
          <mxGeometry x="-351" y="418" width="21" height="21" as="geometry" />
        </mxCell>
        <mxCell id="_ZMJS2XEXF6SMcS7L7t3-30" value="" style="rounded=0;whiteSpace=wrap;html=1;strokeColor=#000000;strokeWidth=2;fillColor=none;" vertex="1" parent="1">
          <mxGeometry x="240" y="-460" width="650" height="210" as="geometry" />
        </mxCell>
        <mxCell id="_ZMJS2XEXF6SMcS7L7t3-33" value="From other cache entries" style="text;html=1;align=center;verticalAlign=middle;whiteSpace=wrap;rounded=0;fontStyle=2;" vertex="1" parent="1">
          <mxGeometry x="-190" y="515" width="80" height="71" as="geometry" />
        </mxCell>
        <mxCell id="_ZMJS2XEXF6SMcS7L7t3-36" style="edgeStyle=orthogonalEdgeStyle;rounded=0;orthogonalLoop=1;jettySize=auto;html=1;exitX=0.75;exitY=1;exitDx=0;exitDy=0;startArrow=classic;startFill=1;endArrow=oval;endFill=1;strokeColor=#000000;strokeWidth=1;" edge="1" parent="1" source="_ZMJS2XEXF6SMcS7L7t3-35">
          <mxGeometry relative="1" as="geometry">
            <mxPoint x="780" y="-94" as="targetPoint" />
          </mxGeometry>
        </mxCell>
        <mxCell id="_ZMJS2XEXF6SMcS7L7t3-37" style="edgeStyle=orthogonalEdgeStyle;rounded=0;orthogonalLoop=1;jettySize=auto;html=1;exitX=0.5;exitY=0;exitDx=0;exitDy=0;entryX=0.5;entryY=1;entryDx=0;entryDy=0;startArrow=none;startFill=0;endArrow=classic;endFill=1;strokeColor=#ae4132;strokeWidth=1;fillColor=#fad9d5;" edge="1" parent="1" source="_ZMJS2XEXF6SMcS7L7t3-35" target="AAuzFfe44RQ2FQWe9RqB-29">
          <mxGeometry relative="1" as="geometry" />
        </mxCell>
        <mxCell id="_ZMJS2XEXF6SMcS7L7t3-105" style="edgeStyle=orthogonalEdgeStyle;rounded=0;orthogonalLoop=1;jettySize=auto;html=1;exitX=0.25;exitY=1;exitDx=0;exitDy=0;startArrow=classic;startFill=1;endArrow=oval;endFill=1;strokeColor=#6F0000;strokeWidth=1;fillColor=#a20025;" edge="1" parent="1" source="_ZMJS2XEXF6SMcS7L7t3-35">
          <mxGeometry relative="1" as="geometry">
            <mxPoint x="859" y="14.428571428571331" as="targetPoint" />
          </mxGeometry>
        </mxCell>
        <mxCell id="_ZMJS2XEXF6SMcS7L7t3-35" value="" style="shape=trapezoid;perimeter=trapezoidPerimeter;whiteSpace=wrap;html=1;fixedSize=1;strokeColor=#000000;strokeWidth=2;fillColor=none;direction=north;size=10;" vertex="1" parent="1">
          <mxGeometry x="700" y="-38" width="40" height="70" as="geometry" />
        </mxCell>
        <mxCell id="_ZMJS2XEXF6SMcS7L7t3-39" style="edgeStyle=orthogonalEdgeStyle;rounded=0;orthogonalLoop=1;jettySize=auto;html=1;exitX=0.5;exitY=0;exitDx=0;exitDy=0;entryX=0.919;entryY=0.967;entryDx=0;entryDy=0;entryPerimeter=0;startArrow=none;startFill=0;endArrow=classic;endFill=1;strokeColor=#006EAF;strokeWidth=1;fillColor=#1ba1e2;" edge="1" parent="1" source="_ZMJS2XEXF6SMcS7L7t3-38" target="AAuzFfe44RQ2FQWe9RqB-28">
          <mxGeometry relative="1" as="geometry">
            <Array as="points">
              <mxPoint x="470" y="-3" />
            </Array>
          </mxGeometry>
        </mxCell>
        <mxCell id="_ZMJS2XEXF6SMcS7L7t3-40" style="edgeStyle=orthogonalEdgeStyle;rounded=0;orthogonalLoop=1;jettySize=auto;html=1;exitX=0.25;exitY=1;exitDx=0;exitDy=0;startArrow=classic;startFill=1;endArrow=oval;endFill=1;strokeColor=#000000;strokeWidth=1;" edge="1" parent="1" source="_ZMJS2XEXF6SMcS7L7t3-38">
          <mxGeometry relative="1" as="geometry">
            <mxPoint x="380" y="-34" as="targetPoint" />
          </mxGeometry>
        </mxCell>
        <mxCell id="_ZMJS2XEXF6SMcS7L7t3-41" style="edgeStyle=orthogonalEdgeStyle;rounded=0;orthogonalLoop=1;jettySize=auto;html=1;exitX=0.75;exitY=1;exitDx=0;exitDy=0;startArrow=classic;startFill=1;endArrow=oval;endFill=1;strokeColor=#006EAF;strokeWidth=1;fillColor=#1ba1e2;" edge="1" parent="1" source="_ZMJS2XEXF6SMcS7L7t3-38">
          <mxGeometry relative="1" as="geometry">
            <mxPoint x="190" y="15" as="targetPoint" />
          </mxGeometry>
        </mxCell>
        <mxCell id="_ZMJS2XEXF6SMcS7L7t3-38" value="" style="shape=trapezoid;perimeter=trapezoidPerimeter;whiteSpace=wrap;html=1;fixedSize=1;strokeColor=#000000;strokeWidth=2;fillColor=none;direction=south;size=10;" vertex="1" parent="1">
          <mxGeometry x="414" y="-38" width="40" height="70" as="geometry" />
        </mxCell>
        <mxCell id="_ZMJS2XEXF6SMcS7L7t3-44" style="edgeStyle=orthogonalEdgeStyle;rounded=0;orthogonalLoop=1;jettySize=auto;html=1;exitX=0;exitY=0.25;exitDx=0;exitDy=0;exitPerimeter=0;startArrow=classic;startFill=1;endArrow=oval;endFill=1;strokeColor=#000000;strokeWidth=1;" edge="1" parent="1" source="_ZMJS2XEXF6SMcS7L7t3-42">
          <mxGeometry relative="1" as="geometry">
            <mxPoint x="50" y="-19" as="targetPoint" />
            <mxPoint x="421.5" y="111" as="sourcePoint" />
            <Array as="points">
              <mxPoint x="422" y="100" />
              <mxPoint x="50" y="100" />
            </Array>
          </mxGeometry>
        </mxCell>
        <mxCell id="_ZMJS2XEXF6SMcS7L7t3-115" style="edgeStyle=orthogonalEdgeStyle;rounded=0;orthogonalLoop=1;jettySize=auto;html=1;exitX=1;exitY=0.5;exitDx=0;exitDy=0;exitPerimeter=0;entryX=1;entryY=0.5;entryDx=0;entryDy=0;startArrow=none;startFill=0;endArrow=classic;endFill=1;strokeColor=#000000;strokeWidth=1;" edge="1" parent="1" source="_ZMJS2XEXF6SMcS7L7t3-42" target="_ZMJS2XEXF6SMcS7L7t3-38">
          <mxGeometry relative="1" as="geometry" />
        </mxCell>
        <mxCell id="_ZMJS2XEXF6SMcS7L7t3-42" value="" style="shape=or;whiteSpace=wrap;html=1;strokeColor=#000000;strokeWidth=2;fillColor=none;direction=north;" vertex="1" parent="1">
          <mxGeometry x="409" y="50" width="50" height="30" as="geometry" />
        </mxCell>
        <mxCell id="_ZMJS2XEXF6SMcS7L7t3-58" style="edgeStyle=orthogonalEdgeStyle;rounded=0;orthogonalLoop=1;jettySize=auto;html=1;exitX=0.75;exitY=1;exitDx=0;exitDy=0;startArrow=classic;startFill=1;endArrow=oval;endFill=1;strokeColor=#000000;strokeWidth=1;" edge="1" parent="1" source="_ZMJS2XEXF6SMcS7L7t3-61">
          <mxGeometry relative="1" as="geometry">
            <mxPoint x="781" y="165" as="targetPoint" />
          </mxGeometry>
        </mxCell>
        <mxCell id="_ZMJS2XEXF6SMcS7L7t3-59" style="edgeStyle=orthogonalEdgeStyle;rounded=0;orthogonalLoop=1;jettySize=auto;html=1;exitX=0.5;exitY=0;exitDx=0;exitDy=0;entryX=0.5;entryY=1;entryDx=0;entryDy=0;startArrow=none;startFill=0;endArrow=classic;endFill=1;strokeColor=#ae4132;strokeWidth=1;fillColor=#fad9d5;" edge="1" parent="1" source="_ZMJS2XEXF6SMcS7L7t3-61">
          <mxGeometry relative="1" as="geometry">
            <mxPoint x="614" y="180" as="targetPoint" />
          </mxGeometry>
        </mxCell>
        <mxCell id="_ZMJS2XEXF6SMcS7L7t3-107" style="edgeStyle=orthogonalEdgeStyle;rounded=0;orthogonalLoop=1;jettySize=auto;html=1;exitX=0.25;exitY=1;exitDx=0;exitDy=0;startArrow=classic;startFill=1;endArrow=oval;endFill=1;strokeColor=#6F0000;strokeWidth=1;fillColor=#a20025;" edge="1" parent="1" source="_ZMJS2XEXF6SMcS7L7t3-61">
          <mxGeometry relative="1" as="geometry">
            <mxPoint x="859" y="273.47619047619037" as="targetPoint" />
          </mxGeometry>
        </mxCell>
        <mxCell id="_ZMJS2XEXF6SMcS7L7t3-61" value="" style="shape=trapezoid;perimeter=trapezoidPerimeter;whiteSpace=wrap;html=1;fixedSize=1;strokeColor=#000000;strokeWidth=2;fillColor=none;direction=north;size=10;" vertex="1" parent="1">
          <mxGeometry x="701" y="221" width="40" height="70" as="geometry" />
        </mxCell>
        <mxCell id="_ZMJS2XEXF6SMcS7L7t3-62" style="edgeStyle=orthogonalEdgeStyle;rounded=0;orthogonalLoop=1;jettySize=auto;html=1;exitX=0.5;exitY=0;exitDx=0;exitDy=0;entryX=0.919;entryY=0.967;entryDx=0;entryDy=0;entryPerimeter=0;startArrow=none;startFill=0;endArrow=classic;endFill=1;strokeColor=#006EAF;strokeWidth=1;fillColor=#1ba1e2;" edge="1" parent="1" source="_ZMJS2XEXF6SMcS7L7t3-65">
          <mxGeometry relative="1" as="geometry">
            <mxPoint x="471.03999999999996" y="179.01000000000022" as="targetPoint" />
            <Array as="points">
              <mxPoint x="471" y="256" />
            </Array>
          </mxGeometry>
        </mxCell>
        <mxCell id="_ZMJS2XEXF6SMcS7L7t3-63" style="edgeStyle=orthogonalEdgeStyle;rounded=0;orthogonalLoop=1;jettySize=auto;html=1;exitX=0.25;exitY=1;exitDx=0;exitDy=0;startArrow=classic;startFill=1;endArrow=oval;endFill=1;strokeColor=#000000;strokeWidth=1;" edge="1" parent="1" source="_ZMJS2XEXF6SMcS7L7t3-65">
          <mxGeometry relative="1" as="geometry">
            <mxPoint x="381" y="225" as="targetPoint" />
          </mxGeometry>
        </mxCell>
        <mxCell id="_ZMJS2XEXF6SMcS7L7t3-64" style="edgeStyle=orthogonalEdgeStyle;rounded=0;orthogonalLoop=1;jettySize=auto;html=1;exitX=0.75;exitY=1;exitDx=0;exitDy=0;startArrow=classic;startFill=1;endArrow=oval;endFill=1;strokeColor=#006EAF;strokeWidth=1;fillColor=#1ba1e2;" edge="1" parent="1" source="_ZMJS2XEXF6SMcS7L7t3-65">
          <mxGeometry relative="1" as="geometry">
            <mxPoint x="191" y="274" as="targetPoint" />
          </mxGeometry>
        </mxCell>
        <mxCell id="_ZMJS2XEXF6SMcS7L7t3-65" value="" style="shape=trapezoid;perimeter=trapezoidPerimeter;whiteSpace=wrap;html=1;fixedSize=1;strokeColor=#000000;strokeWidth=2;fillColor=none;direction=south;size=10;" vertex="1" parent="1">
          <mxGeometry x="415" y="221" width="40" height="70" as="geometry" />
        </mxCell>
        <mxCell id="_ZMJS2XEXF6SMcS7L7t3-67" style="edgeStyle=orthogonalEdgeStyle;rounded=0;orthogonalLoop=1;jettySize=auto;html=1;exitX=0;exitY=0.25;exitDx=0;exitDy=0;exitPerimeter=0;startArrow=classic;startFill=1;endArrow=oval;endFill=1;strokeColor=#000000;strokeWidth=1;" edge="1" parent="1" source="_ZMJS2XEXF6SMcS7L7t3-68">
          <mxGeometry relative="1" as="geometry">
            <mxPoint x="50.99999999999977" y="240" as="targetPoint" />
            <mxPoint x="422.5" y="370" as="sourcePoint" />
            <Array as="points">
              <mxPoint x="423" y="359" />
              <mxPoint x="51" y="359" />
            </Array>
          </mxGeometry>
        </mxCell>
        <mxCell id="_ZMJS2XEXF6SMcS7L7t3-68" value="" style="shape=or;whiteSpace=wrap;html=1;strokeColor=#000000;strokeWidth=2;fillColor=none;direction=north;" vertex="1" parent="1">
          <mxGeometry x="410" y="309" width="50" height="30" as="geometry" />
        </mxCell>
        <mxCell id="_ZMJS2XEXF6SMcS7L7t3-90" style="edgeStyle=orthogonalEdgeStyle;rounded=0;orthogonalLoop=1;jettySize=auto;html=1;exitX=0.75;exitY=1;exitDx=0;exitDy=0;startArrow=classic;startFill=1;endArrow=oval;endFill=1;strokeColor=#000000;strokeWidth=1;" edge="1" parent="1" source="_ZMJS2XEXF6SMcS7L7t3-93">
          <mxGeometry relative="1" as="geometry">
            <mxPoint x="780" y="394" as="targetPoint" />
          </mxGeometry>
        </mxCell>
        <mxCell id="_ZMJS2XEXF6SMcS7L7t3-91" style="edgeStyle=orthogonalEdgeStyle;rounded=0;orthogonalLoop=1;jettySize=auto;html=1;exitX=0.5;exitY=0;exitDx=0;exitDy=0;entryX=0.5;entryY=1;entryDx=0;entryDy=0;startArrow=none;startFill=0;endArrow=classic;endFill=1;strokeColor=#ae4132;strokeWidth=1;fillColor=#fad9d5;" edge="1" parent="1" source="_ZMJS2XEXF6SMcS7L7t3-93">
          <mxGeometry relative="1" as="geometry">
            <mxPoint x="613" y="409" as="targetPoint" />
          </mxGeometry>
        </mxCell>
        <mxCell id="_ZMJS2XEXF6SMcS7L7t3-102" style="edgeStyle=orthogonalEdgeStyle;rounded=0;orthogonalLoop=1;jettySize=auto;html=1;exitX=0.25;exitY=1;exitDx=0;exitDy=0;startArrow=classic;startFill=1;endArrow=none;endFill=0;strokeColor=#6F0000;strokeWidth=1;fillColor=#a20025;entryX=0.75;entryY=1;entryDx=0;entryDy=0;" edge="1" parent="1" source="_ZMJS2XEXF6SMcS7L7t3-93" target="_ZMJS2XEXF6SMcS7L7t3-30">
          <mxGeometry relative="1" as="geometry">
            <mxPoint x="740" y="-200" as="targetPoint" />
            <Array as="points">
              <mxPoint x="859" y="503" />
              <mxPoint x="859" y="-170" />
              <mxPoint x="728" y="-170" />
            </Array>
          </mxGeometry>
        </mxCell>
        <mxCell id="_ZMJS2XEXF6SMcS7L7t3-93" value="" style="shape=trapezoid;perimeter=trapezoidPerimeter;whiteSpace=wrap;html=1;fixedSize=1;strokeColor=#000000;strokeWidth=2;fillColor=none;direction=north;size=10;" vertex="1" parent="1">
          <mxGeometry x="700" y="450" width="40" height="70" as="geometry" />
        </mxCell>
        <mxCell id="_ZMJS2XEXF6SMcS7L7t3-94" style="edgeStyle=orthogonalEdgeStyle;rounded=0;orthogonalLoop=1;jettySize=auto;html=1;exitX=0.5;exitY=0;exitDx=0;exitDy=0;entryX=0.919;entryY=0.967;entryDx=0;entryDy=0;entryPerimeter=0;startArrow=none;startFill=0;endArrow=classic;endFill=1;strokeColor=#006EAF;strokeWidth=1;fillColor=#1ba1e2;" edge="1" parent="1" source="_ZMJS2XEXF6SMcS7L7t3-97">
          <mxGeometry relative="1" as="geometry">
            <mxPoint x="470.0400000000004" y="408.01" as="targetPoint" />
            <Array as="points">
              <mxPoint x="470" y="485" />
            </Array>
          </mxGeometry>
        </mxCell>
        <mxCell id="_ZMJS2XEXF6SMcS7L7t3-95" style="edgeStyle=orthogonalEdgeStyle;rounded=0;orthogonalLoop=1;jettySize=auto;html=1;exitX=0.25;exitY=1;exitDx=0;exitDy=0;startArrow=classic;startFill=1;endArrow=oval;endFill=1;strokeColor=#000000;strokeWidth=1;" edge="1" parent="1" source="_ZMJS2XEXF6SMcS7L7t3-97">
          <mxGeometry relative="1" as="geometry">
            <mxPoint x="380" y="454" as="targetPoint" />
          </mxGeometry>
        </mxCell>
        <mxCell id="_ZMJS2XEXF6SMcS7L7t3-96" style="edgeStyle=orthogonalEdgeStyle;rounded=0;orthogonalLoop=1;jettySize=auto;html=1;exitX=0.75;exitY=1;exitDx=0;exitDy=0;startArrow=classic;startFill=1;endArrow=oval;endFill=1;strokeColor=#006EAF;strokeWidth=1;fillColor=#1ba1e2;" edge="1" parent="1" source="_ZMJS2XEXF6SMcS7L7t3-97">
          <mxGeometry relative="1" as="geometry">
            <mxPoint x="190" y="503" as="targetPoint" />
          </mxGeometry>
        </mxCell>
        <mxCell id="_ZMJS2XEXF6SMcS7L7t3-97" value="" style="shape=trapezoid;perimeter=trapezoidPerimeter;whiteSpace=wrap;html=1;fixedSize=1;strokeColor=#000000;strokeWidth=2;fillColor=none;direction=south;size=10;" vertex="1" parent="1">
          <mxGeometry x="414" y="450" width="40" height="70" as="geometry" />
        </mxCell>
        <mxCell id="_ZMJS2XEXF6SMcS7L7t3-99" style="edgeStyle=orthogonalEdgeStyle;rounded=0;orthogonalLoop=1;jettySize=auto;html=1;exitX=0;exitY=0.25;exitDx=0;exitDy=0;exitPerimeter=0;startArrow=classic;startFill=1;endArrow=oval;endFill=1;strokeColor=#000000;strokeWidth=1;" edge="1" parent="1" source="_ZMJS2XEXF6SMcS7L7t3-100">
          <mxGeometry relative="1" as="geometry">
            <mxPoint x="50" y="469" as="targetPoint" />
            <mxPoint x="421.5" y="599" as="sourcePoint" />
            <Array as="points">
              <mxPoint x="422" y="588" />
              <mxPoint x="50" y="588" />
            </Array>
          </mxGeometry>
        </mxCell>
        <mxCell id="_ZMJS2XEXF6SMcS7L7t3-101" style="edgeStyle=orthogonalEdgeStyle;rounded=0;orthogonalLoop=1;jettySize=auto;html=1;exitX=0;exitY=0.75;exitDx=0;exitDy=0;exitPerimeter=0;startArrow=classic;startFill=1;endArrow=none;endFill=0;strokeColor=#6F0000;strokeWidth=1;fillColor=#a20025;entryX=0.25;entryY=1;entryDx=0;entryDy=0;" edge="1" parent="1" source="_ZMJS2XEXF6SMcS7L7t3-100" target="_ZMJS2XEXF6SMcS7L7t3-30">
          <mxGeometry relative="1" as="geometry">
            <mxPoint x="490" y="-248" as="targetPoint" />
            <Array as="points">
              <mxPoint x="447" y="588" />
              <mxPoint x="490" y="588" />
              <mxPoint x="490" y="-180" />
              <mxPoint x="400" y="-180" />
              <mxPoint x="400" y="-250" />
            </Array>
          </mxGeometry>
        </mxCell>
        <mxCell id="_ZMJS2XEXF6SMcS7L7t3-100" value="" style="shape=or;whiteSpace=wrap;html=1;strokeColor=#000000;strokeWidth=2;fillColor=none;direction=north;" vertex="1" parent="1">
          <mxGeometry x="409" y="538" width="50" height="30" as="geometry" />
        </mxCell>
        <mxCell id="_ZMJS2XEXF6SMcS7L7t3-110" value="" style="endArrow=classic;html=1;rounded=0;strokeColor=#6F0000;strokeWidth=1;entryX=0;entryY=0.75;entryDx=0;entryDy=0;entryPerimeter=0;fillColor=#a20025;startArrow=oval;startFill=1;" edge="1" parent="1" target="_ZMJS2XEXF6SMcS7L7t3-68">
          <mxGeometry width="50" height="50" relative="1" as="geometry">
            <mxPoint x="490" y="360" as="sourcePoint" />
            <mxPoint x="520" y="280" as="targetPoint" />
            <Array as="points">
              <mxPoint x="448" y="360" />
            </Array>
          </mxGeometry>
        </mxCell>
        <mxCell id="_ZMJS2XEXF6SMcS7L7t3-111" value="" style="endArrow=classic;html=1;rounded=0;strokeColor=#6F0000;strokeWidth=1;entryX=0;entryY=0.75;entryDx=0;entryDy=0;entryPerimeter=0;startArrow=oval;startFill=1;fillColor=#a20025;" edge="1" parent="1" target="_ZMJS2XEXF6SMcS7L7t3-42">
          <mxGeometry width="50" height="50" relative="1" as="geometry">
            <mxPoint x="490" y="100" as="sourcePoint" />
            <mxPoint x="500" y="50" as="targetPoint" />
            <Array as="points">
              <mxPoint x="447" y="100" />
            </Array>
          </mxGeometry>
        </mxCell>
        <mxCell id="_ZMJS2XEXF6SMcS7L7t3-116" style="edgeStyle=orthogonalEdgeStyle;rounded=0;orthogonalLoop=1;jettySize=auto;html=1;exitX=1;exitY=0.5;exitDx=0;exitDy=0;exitPerimeter=0;entryX=0;entryY=0.5;entryDx=0;entryDy=0;startArrow=none;startFill=0;endArrow=classic;endFill=1;strokeColor=#000000;strokeWidth=1;" edge="1" parent="1" source="_ZMJS2XEXF6SMcS7L7t3-112" target="_ZMJS2XEXF6SMcS7L7t3-35">
          <mxGeometry relative="1" as="geometry" />
        </mxCell>
        <mxCell id="_ZMJS2XEXF6SMcS7L7t3-126" style="edgeStyle=orthogonalEdgeStyle;rounded=0;orthogonalLoop=1;jettySize=auto;html=1;exitX=0;exitY=0.75;exitDx=0;exitDy=0;exitPerimeter=0;startArrow=block;startFill=1;endArrow=oval;endFill=1;strokeColor=#990000;strokeWidth=1;" edge="1" parent="1" source="_ZMJS2XEXF6SMcS7L7t3-112">
          <mxGeometry relative="1" as="geometry">
            <mxPoint x="520" y="130" as="targetPoint" />
            <Array as="points">
              <mxPoint x="733" y="130" />
            </Array>
          </mxGeometry>
        </mxCell>
        <mxCell id="_ZMJS2XEXF6SMcS7L7t3-112" value="" style="shape=or;whiteSpace=wrap;html=1;strokeColor=#000000;strokeWidth=2;fillColor=none;direction=north;" vertex="1" parent="1">
          <mxGeometry x="695" y="50" width="50" height="30" as="geometry" />
        </mxCell>
        <mxCell id="_ZMJS2XEXF6SMcS7L7t3-117" style="edgeStyle=orthogonalEdgeStyle;rounded=0;orthogonalLoop=1;jettySize=auto;html=1;exitX=1;exitY=0.5;exitDx=0;exitDy=0;exitPerimeter=0;entryX=0;entryY=0.5;entryDx=0;entryDy=0;startArrow=none;startFill=0;endArrow=classic;endFill=1;strokeColor=#000000;strokeWidth=1;" edge="1" parent="1" source="_ZMJS2XEXF6SMcS7L7t3-113" target="_ZMJS2XEXF6SMcS7L7t3-61">
          <mxGeometry relative="1" as="geometry" />
        </mxCell>
        <mxCell id="_ZMJS2XEXF6SMcS7L7t3-125" style="edgeStyle=orthogonalEdgeStyle;rounded=0;orthogonalLoop=1;jettySize=auto;html=1;exitX=0;exitY=0.75;exitDx=0;exitDy=0;exitPerimeter=0;startArrow=block;startFill=1;endArrow=oval;endFill=1;strokeColor=#990000;strokeWidth=1;" edge="1" parent="1" source="_ZMJS2XEXF6SMcS7L7t3-113">
          <mxGeometry relative="1" as="geometry">
            <mxPoint x="520" y="360" as="targetPoint" />
            <Array as="points">
              <mxPoint x="733" y="359" />
              <mxPoint x="608" y="359" />
              <mxPoint x="520" y="360" />
            </Array>
          </mxGeometry>
        </mxCell>
        <mxCell id="_ZMJS2XEXF6SMcS7L7t3-113" value="" style="shape=or;whiteSpace=wrap;html=1;strokeColor=#000000;strokeWidth=2;fillColor=none;direction=north;" vertex="1" parent="1">
          <mxGeometry x="696" y="309" width="50" height="30" as="geometry" />
        </mxCell>
        <mxCell id="_ZMJS2XEXF6SMcS7L7t3-118" style="edgeStyle=orthogonalEdgeStyle;rounded=0;orthogonalLoop=1;jettySize=auto;html=1;exitX=1;exitY=0.5;exitDx=0;exitDy=0;exitPerimeter=0;entryX=0;entryY=0.5;entryDx=0;entryDy=0;startArrow=none;startFill=0;endArrow=classic;endFill=1;strokeColor=#000000;strokeWidth=1;" edge="1" parent="1" source="_ZMJS2XEXF6SMcS7L7t3-114" target="_ZMJS2XEXF6SMcS7L7t3-93">
          <mxGeometry relative="1" as="geometry" />
        </mxCell>
        <mxCell id="_ZMJS2XEXF6SMcS7L7t3-124" style="edgeStyle=orthogonalEdgeStyle;rounded=0;orthogonalLoop=1;jettySize=auto;html=1;exitX=0;exitY=0.75;exitDx=0;exitDy=0;exitPerimeter=0;startArrow=block;startFill=1;endArrow=none;endFill=0;strokeColor=#990000;strokeWidth=1;entryX=0.5;entryY=1;entryDx=0;entryDy=0;" edge="1" parent="1" source="_ZMJS2XEXF6SMcS7L7t3-114" target="_ZMJS2XEXF6SMcS7L7t3-30">
          <mxGeometry relative="1" as="geometry">
            <mxPoint x="530" y="70" as="targetPoint" />
            <Array as="points">
              <mxPoint x="733" y="610" />
              <mxPoint x="520" y="610" />
              <mxPoint x="520" y="-180" />
              <mxPoint x="565" y="-180" />
            </Array>
          </mxGeometry>
        </mxCell>
        <mxCell id="_ZMJS2XEXF6SMcS7L7t3-114" value="" style="shape=or;whiteSpace=wrap;html=1;strokeColor=#000000;strokeWidth=2;fillColor=none;direction=north;" vertex="1" parent="1">
          <mxGeometry x="695" y="538" width="50" height="30" as="geometry" />
        </mxCell>
        <mxCell id="_ZMJS2XEXF6SMcS7L7t3-120" value="" style="endArrow=classic;html=1;rounded=0;strokeColor=#000000;strokeWidth=1;entryX=0;entryY=0.25;entryDx=0;entryDy=0;entryPerimeter=0;startArrow=oval;startFill=1;" edge="1" parent="1" target="_ZMJS2XEXF6SMcS7L7t3-113">
          <mxGeometry width="50" height="50" relative="1" as="geometry">
            <mxPoint x="400" y="359" as="sourcePoint" />
            <mxPoint x="720" y="240" as="targetPoint" />
            <Array as="points">
              <mxPoint x="400" y="370" />
              <mxPoint x="709" y="370" />
            </Array>
          </mxGeometry>
        </mxCell>
        <mxCell id="_ZMJS2XEXF6SMcS7L7t3-122" value="" style="endArrow=classic;html=1;rounded=0;strokeColor=#000000;strokeWidth=1;entryX=0;entryY=0.25;entryDx=0;entryDy=0;entryPerimeter=0;startArrow=oval;startFill=1;" edge="1" parent="1">
          <mxGeometry width="50" height="50" relative="1" as="geometry">
            <mxPoint x="400" y="588" as="sourcePoint" />
            <mxPoint x="708.5" y="568" as="targetPoint" />
            <Array as="points">
              <mxPoint x="400" y="599" />
              <mxPoint x="709" y="599" />
            </Array>
          </mxGeometry>
        </mxCell>
        <mxCell id="_ZMJS2XEXF6SMcS7L7t3-123" value="" style="endArrow=classic;html=1;rounded=0;strokeColor=#000000;strokeWidth=1;entryX=0;entryY=0.25;entryDx=0;entryDy=0;entryPerimeter=0;startArrow=oval;startFill=1;" edge="1" parent="1">
          <mxGeometry width="50" height="50" relative="1" as="geometry">
            <mxPoint x="400" y="100" as="sourcePoint" />
            <mxPoint x="708.5" y="80" as="targetPoint" />
            <Array as="points">
              <mxPoint x="400" y="111" />
              <mxPoint x="709" y="111" />
            </Array>
          </mxGeometry>
        </mxCell>
      </root>
    </mxGraphModel>
  </diagram>
</mxfile>
